<?xml version="1.0" encoding="UTF-8" standalone="no"?>
<svg width="24px" height="24px" viewBox="0 0 24 24" version="1.1" xmlns="http://www.w3.org/2000/svg" xmlns:xlink="http://www.w3.org/1999/xlink">
    <!-- Generator: Sketch 40.1 (33804) - http://www.bohemiancoding.com/sketch -->
    <title>notice_02</title>
    <desc>Created with Sketch.</desc>
    <defs></defs>
    <g id="Page-1" stroke="none" stroke-width="1" fill="none" fill-rule="evenodd">
        <g id="notice_02" fill="#1F2757">
            <path d="M16.9250064,24 L14.0236364,20.6346202 L16.896,20.6346202 L19.7685201,23.9723919 L16.9250064,24 Z M18.5454545,5.48807184 L14.1818182,5.48807184 L14.1818182,6.56996815 L18.5454545,6.56996815 L18.5454545,5.48807184 L18.5454545,5.48807184 Z M13.0909091,23.9866945 L13.0909091,20.6346202 L10.9090909,20.6346202 L10.9090909,23.952804 L13.0909091,23.9866945 Z M7.10532453,23.9458377 L9.96,20.6346202 L7.08763636,20.6346202 L4.24126102,23.9410441 L7.10532453,23.9458377 Z M18.5454545,7.65186446 L14.1818182,7.65186446 L14.1818182,8.73376078 L18.5454545,8.73376078 L18.5454545,7.65186446 L18.5454545,7.65186446 Z M18.5454545,9.81565709 L14.1818182,9.81565709 L14.1818182,10.8975534 L18.5454545,10.8975534 L18.5454545,9.81565709 L18.5454545,9.81565709 Z M9.27272727,13.061346 C11.1949091,13.061346 12.7690909,11.6483894 13.0363636,9.81565709 L8.72727273,9.81565709 L8.72727273,5.54216665 C6.87927273,5.80723125 5.45454545,7.36840763 5.45454545,9.27470893 C5.45454545,11.3660145 7.164,13.061346 9.27272727,13.061346 L9.27272727,13.061346 Z M9.81818182,5.54216665 L9.81818182,8.73376078 L13.0363636,8.73376078 C12.7952727,7.07954131 11.4861818,5.78126574 9.81818182,5.54216665 L9.81818182,5.54216665 Z M18.5454545,11.9794497 L14.1818182,11.9794497 L14.1818182,13.061346 L18.5454545,13.061346 L18.5454545,11.9794497 L18.5454545,11.9794497 Z M22.9090909,2.2423829 L22.9090909,18.4708276 L1.09090909,18.4708276 L1.09090909,2.2423829 L0,2.2423829 L0,0 L24,0.0352315243 L24,2.2423829 L22.9090909,2.2423829 Z M20.7272727,2.2423829 L3.27272727,2.2423829 L3.27272727,16.307035 L20.7272727,16.307035 L20.7272727,2.2423829 L20.7272727,2.2423829 Z" id="Shape"></path>
        </g>
    </g>
</svg>
