<?xml version="1.0" encoding="UTF-8" standalone="no"?>
<svg width="24px" height="24px" viewBox="0 0 24 24" version="1.1" xmlns="http://www.w3.org/2000/svg" xmlns:xlink="http://www.w3.org/1999/xlink">
    <!-- Generator: Sketch 40.1 (33804) - http://www.bohemiancoding.com/sketch -->
    <title>notice_01</title>
    <desc>Created with Sketch.</desc>
    <defs></defs>
    <g id="Page-1" stroke="none" stroke-width="1" fill="none" fill-rule="evenodd">
        <g id="notice_01" fill="#1F2757">
            <g id="notice_system" transform="translate(0.000000, 1.000000)">
                <g id="Group">
                    <path d="M2.6,20.7 C2.5,21.2 2.5,21.6 3.2,21.6 L5.7,21.6 C6.1,21.6 6.4,21.5 6.5,21 C6.6,20.5 7.4,16.6 7.4,16.6 L3.5,16.6 C3.5,16.7 2.8,19.9 2.6,20.7 L2.6,20.7 Z" id="Shape"></path>
                    <path d="M5.9,16 L5.9,7.1 L4.4,7.1 C2,7.1 0,9.1 0,11.6 C0,14 2,16 4.5,16 L5.9,16 L5.9,16 Z" id="Shape"></path>
                    <path d="M22.1,1.5 C16.3,6.2 14.5,6.5 9,7.1 L7.4,7.1 L7.4,16 L9,16 C14.5,16.5 16.3,16.8 22.1,21.5 C23.1,22.3 24,22.2 24,21.1 L24,1.9 C24,0.8 23.1,0.7 22.1,1.5 Z" id="Shape"></path>
                </g>
            </g>
        </g>
    </g>
</svg>
