<?xml version="1.0" encoding="UTF-8" standalone="no"?>
<svg width="24px" height="16px" viewBox="0 0 24 16" version="1.1" xmlns="http://www.w3.org/2000/svg" xmlns:xlink="http://www.w3.org/1999/xlink">
    <!-- Generator: Sketch 40.1 (33804) - http://www.bohemiancoding.com/sketch -->
    <title>Group 34 Copy 3</title>
    <desc>Created with Sketch.</desc>
    <defs>
        <linearGradient x1="100%" y1="0%" x2="0%" y2="0%" id="linearGradient-1">
            <stop stop-color="#BB6A33" offset="0%"></stop>
            <stop stop-color="#F5B079" offset="42.6147461%"></stop>
            <stop stop-color="#F5B079" offset="55.3304036%"></stop>
            <stop stop-color="#BB6A33" offset="100%"></stop>
        </linearGradient>
    </defs>
    <g id="Page-1" stroke="none" stroke-width="1" fill="none" fill-rule="evenodd">
        <g id="parts_01" transform="translate(-212.000000, -35.000000)">
            <g id="Group-34-Copy-3" transform="translate(212.000000, 31.000000)">
                <rect id="Rectangle-16" x="0" y="0" width="24" height="24"></rect>
                <path d="M22.1762812,6.60592187 C21.1699219,6.60592187 20.3532656,7.42182812 20.3532656,8.4289375 C20.3532656,8.921125 20.5488281,9.3664375 20.8659844,9.6945625 C19.626,12.2624219 17.2558594,13.1582031 15.4189687,12.3466562 C13.78275,11.62375 13.1792344,9.55539062 12.9748594,7.952875 C13.641375,7.6013125 14.0962031,6.90259375 14.0962031,6.09690625 C14.0962031,4.93820313 13.1579531,4 12,4 C10.8412969,4 9.90309375,4.93825 9.90309375,6.09690625 C9.90309375,6.90259375 10.3579219,7.6013125 11.0251875,7.952875 C10.8208594,9.5554375 10.2165937,11.6237969 8.58107812,12.3466562 C6.74414062,13.1581562 4.37475,12.2624219 3.13401562,9.6945625 C3.45042187,9.3664375 3.64673437,8.921125 3.64673437,8.4289375 C3.64673437,7.421875 2.83007812,6.60592187 1.82301563,6.60592187 C0.815953125,6.60592187 0,7.42182812 0,8.4289375 C0,9.35546875 0.69065625,10.1178906 1.58498438,10.2350781 L4.19826563,19.9623906 L19.8017812,19.9623906 L22.4150625,10.2350781 C23.3085938,10.1178906 24,9.35542187 24,8.4289375 C24,7.421875 23.1833437,6.60592187 22.1762812,6.60592187 Z" id="Shape" fill="url(#linearGradient-1)"></path>
            </g>
        </g>
    </g>
</svg>
