<?xml version="1.0" encoding="UTF-8" standalone="no"?>
<svg width="24px" height="24px" viewBox="0 0 24 24" version="1.1" xmlns="http://www.w3.org/2000/svg" xmlns:xlink="http://www.w3.org/1999/xlink">
    <!-- Generator: Sketch 40.1 (33804) - http://www.bohemiancoding.com/sketch -->
    <title>14_active</title>
    <desc>Created with Sketch.</desc>
    <defs></defs>
    <g id="Page-1" stroke="none" stroke-width="1" fill="none" fill-rule="evenodd">
        <g id="14_active">
            <g id="To-top_24-Copy" transform="translate(12.000000, 12.000000) scale(-1, 1) rotate(-270.000000) translate(-12.000000, -12.000000) ">
                <g id="icon_desktop" transform="translate(-0.000000, 0.000000)">
                    <g id="To-top" transform="translate(0.000000, 0.000000)">
                        <g id="to_top" transform="translate(0.000000, 0.000000)">
                            <path d="M5.3,3.94430453e-31 L18.6,3.94430453e-31 C21.6,3.94430453e-31 24,2.4 24,5.3 L24,18.6 C24,21.5 21.6,23.9 18.7,23.9 L5.3,23.9 C2.4,24 3.94430453e-31,21.6 3.94430453e-31,18.7 L3.94430453e-31,5.3 C3.94430453e-31,2.4 2.4,3.94430453e-31 5.3,3.94430453e-31 L5.3,3.94430453e-31 Z" id="Rectangle-8" fill="#F0F0F2"></path>
                            <polygon id="Triangle" fill="#7A7F99" points="12 6 18 16.5 6 16.5"></polygon>
                        </g>
                    </g>
                </g>
            </g>
        </g>
    </g>
</svg>
