<?xml version="1.0" encoding="UTF-8" standalone="no"?>
<svg width="16px" height="16px" viewBox="0 0 16 16" version="1.1" xmlns="http://www.w3.org/2000/svg" xmlns:xlink="http://www.w3.org/1999/xlink">
    <!-- Generator: Sketch 40.1 (33804) - http://www.bohemiancoding.com/sketch -->
    <title>10</title>
    <desc>Created with Sketch.</desc>
    <defs></defs>
    <g id="Page-1" stroke="none" stroke-width="1" fill="none" fill-rule="evenodd">
        <g id="10" fill="#FFFFFF">
            <path d="M11.8709677,9.7366548 C13.4767025,7.23131673 13.1326165,4.04270463 10.953405,1.87900356 C8.43010753,-0.62633452 4.41577061,-0.62633452 1.89247312,1.87900356 C-0.630824373,4.38434164 -0.630824373,8.37010676 1.89247312,10.8754448 C4.07168459,13.0391459 7.39784946,13.2669039 9.80645161,11.7864769 L14.0501792,16 L16,14.0640569 L11.8709677,9.7366548 L11.8709677,9.7366548 Z M9.34767025,9.28113879 C7.74193548,10.8754448 5.10394265,10.8754448 3.49820789,9.28113879 C1.89247312,7.68683274 1.89247312,5.06761566 3.49820789,3.47330961 C5.10394265,1.87900356 7.74193548,1.87900356 9.34767025,3.47330961 C10.953405,5.06761566 10.953405,7.68683274 9.34767025,9.28113879 L9.34767025,9.28113879 Z" id="Shape"></path>
        </g>
    </g>
</svg>
