<?xml version="1.0" encoding="UTF-8" standalone="no"?>
<svg width="24px" height="24px" viewBox="0 0 24 24" version="1.1" xmlns="http://www.w3.org/2000/svg" xmlns:xlink="http://www.w3.org/1999/xlink">
    <!-- Generator: Sketch 40.1 (33804) - http://www.bohemiancoding.com/sketch -->
    <title>01</title>
    <desc>Created with Sketch.</desc>
    <defs></defs>
    <g id="Page-1" stroke="none" stroke-width="1" fill="none" fill-rule="evenodd">
        <g id="01" fill="#FFFFFF">
            <path d="M12,2 C17.514,2 22,6.486 22,12 C22,17.514 17.514,22 12,22 C6.486,22 2,17.514 2,12 C2,6.486 6.486,2 12,2 L12,2 Z M12,0 C5.373,0 0,5.373 0,12 C0,18.627 5.373,24 12,24 C18.627,24 24,18.627 24,12 C24,5.373 18.627,0 12,0 L12,0 Z M11.999,5.75 C12.689,5.75 13.25,6.31 13.25,7 C13.25,7.69 12.689,8.25 11.999,8.25 C11.309,8.25 10.75,7.69 10.75,7 C10.75,6.31 11.309,5.75 11.999,5.75 L11.999,5.75 Z M14,18 L10,18 L10,17 C10.484,16.821 11,16.799 11,16.265 L11,11.798 C11,11.264 10.484,11.18 10,11.001 L10,10.001 L13,10.001 L13,16.266 C13,16.801 13.517,16.824 14,17.001 L14,18 L14,18 Z" id="Shape"></path>
        </g>
    </g>
</svg>
