<?xml version="1.0" encoding="UTF-8" standalone="no"?>
<svg width="24px" height="24px" viewBox="0 0 24 24" version="1.1" xmlns="http://www.w3.org/2000/svg" xmlns:xlink="http://www.w3.org/1999/xlink">
    <!-- Generator: Sketch 40.1 (33804) - http://www.bohemiancoding.com/sketch -->
    <title>notice_03</title>
    <desc>Created with Sketch.</desc>
    <defs></defs>
    <g id="Page-1" stroke="none" stroke-width="1" fill="none" fill-rule="evenodd">
        <g id="notice_03" fill="#1F2757">
            <g id="clock">
                <g id="Group">
                    <path d="M12,0 C5.4,0 0,5.4 0,12 C0,18.6 5.4,24 12,24 C18.6,24 24,18.6 24,12 C24,5.4 18.6,0 12,0 L12,0 Z M12,21.1 C7,21.1 2.9,17 2.9,12 C2.9,7 7,2.9 12,2.9 C17,2.9 21.1,7 21.1,12 C21.1,17 17,21.1 12,21.1 L12,21.1 Z" id="Shape"></path>
                    <rect id="Rectangle-path" transform="translate(8.986550, 11.205580) rotate(-44.991897) translate(-8.986550, -11.205580) " x="7.98655958" y="9.0556006" width="1.99998084" height="4.29995881"></rect>
                    <rect id="Rectangle-path" transform="translate(14.590090, 11.340370) rotate(-45.000000) translate(-14.590090, -11.340370) " x="9.69013699" y="10.3403796" width="9.79990602" height="1.99998082"></rect>
                </g>
            </g>
        </g>
    </g>
</svg>
