<?xml version="1.0" encoding="UTF-8" standalone="no"?>
<svg width="32px" height="32px" viewBox="0 0 32 32" version="1.1" xmlns="http://www.w3.org/2000/svg" xmlns:xlink="http://www.w3.org/1999/xlink">
    <!-- Generator: Sketch 40.3 (33839) - http://www.bohemiancoding.com/sketch -->
    <title>btn_hover</title>
    <desc>Created with Sketch.</desc>
    <defs></defs>
    <g id="Page-1" stroke="none" stroke-width="1" fill="none" fill-rule="evenodd">
        <g id="parts_02" transform="translate(-686.000000, -72.000000)">
            <g id="btn_hover" transform="translate(686.000000, 72.000000)">
                <rect id="Rectangle-39" fill="#F0F0F2" x="0" y="0" width="32" height="32" rx="4"></rect>
                <g id="Group-2" transform="translate(8.000000, 8.000000)" fill="#7A7F99">
                    <g id="Group-4">
                        <path d="M0,11 L2,11 L2,16 L0,16 L0,11 Z M14,11 L16,11 L16,16 L14,16 L14,11 Z M2,16 L2,14 L14,14 L14,16 L2,16 Z" id="Combined-Shape"></path>
                        <path d="M7.5291666,10.7335833 C7.65331661,10.9054483 7.82049416,11 8.00000323,11 C8.17947436,11 8.34665191,10.9054085 8.47083986,10.7337027 L11.870319,6.03223623 C11.9973527,5.8565095 12.0324881,5.68619709 11.9693886,5.55282949 C11.9061753,5.4194619 11.7557307,5.34589076 11.5456394,5.34589076 L10.2439615,5.34589076 C9.89154547,5.34589076 9.60484698,5.04515678 9.60484698,4.67546977 L9.60484698,0.797299351 C9.60484698,0.357783456 9.2640036,0 8.84507321,0 L7.15485736,0 C6.73596492,0 6.39515949,0.357783456 6.39515949,0.797299351 L6.39515949,4.67550958 C6.39515949,5.0451966 6.10846099,5.34593057 5.75604496,5.34593057 L4.45440497,5.34593057 C4.24427577,5.34593057 4.09383116,5.41950171 4.0306558,5.5528693 C3.96748045,5.6862369 4.00265375,5.85654931 4.1296495,6.03243529 L7.5291666,10.7335833 L7.5291666,10.7335833 Z" id="Shape"></path>
                    </g>
                </g>
            </g>
        </g>
    </g>
</svg>
