<?xml version="1.0" encoding="UTF-8" standalone="no"?>
<svg width="24px" height="24px" viewBox="0 0 24 24" version="1.1" xmlns="http://www.w3.org/2000/svg" xmlns:xlink="http://www.w3.org/1999/xlink">
    <!-- Generator: Sketch 40.1 (33804) - http://www.bohemiancoding.com/sketch -->
    <title>navi_06</title>
    <desc>Created with Sketch.</desc>
    <defs></defs>
    <g id="Page-1" stroke="none" stroke-width="1" fill="none" fill-rule="evenodd">
        <g id="navi_06" fill="#1F2757">
            <g id="medal" transform="translate(2.000000, 0.000000)">
                <g id="Group">
                    <path d="M4,15.7 C3.9,15.6 3.8,15.5 3.6,15.4 L3.6,15.4 L3.6,15.4 L0.8,21.5 L0.7,21.7 L0.8,21.9 C0.9,22 1,22 1.2,22 L1.3,22 L4,21.2 L5,23.7 C5.1,23.9 5.2,24 5.4,24 C5.6,24 5.7,23.9 5.8,23.8 L8,19.1 L8.6,17.7 L8.6,17.7 L8.6,17.7 C6.9,17.4 5.3,16.7 4,15.7 L4,15.7 Z" id="Shape"></path>
                    <path d="M17,16.7 L16.4,15.3 L16.4,15.3 L16.4,15.3 C15.1,16.4 13.5,17.2 11.8,17.5 C11.7,17.5 11.6,17.5 11.4,17.6 L11.4,17.6 L11.4,17.6 L14.2,23.7 C14.3,23.8 14.4,23.9 14.6,23.9 C14.8,23.9 14.9,23.8 15,23.6 L16.1,21 L18.8,21.8 L18.9,21.8 L19,21.8 C19.1,21.8 19.3,21.7 19.3,21.6 L19.4,21.4 L17,16.7 L17,16.7 Z" id="Shape"></path>
                    <path d="M18.1,8.1 C18.1,3.6 14.5,0 10,0 C5.5,0 1.9,3.6 1.9,8.1 C1.9,12.6 5.5,16.2 10,16.2 C14.5,16.3 18.1,12.6 18.1,8.1 L18.1,8.1 Z M10,11.9 C7.9,11.9 6.2,10.2 6.2,8.1 C6.2,6 7.9,4.3 10,4.3 C12.1,4.3 13.8,6 13.8,8.1 C13.8,10.2 12.1,11.9 10,11.9 L10,11.9 Z" id="Shape"></path>
                </g>
            </g>
        </g>
    </g>
</svg>
