<?xml version="1.0" encoding="UTF-8" standalone="no"?>
<svg width="24px" height="24px" viewBox="0 0 24 24" version="1.1" xmlns="http://www.w3.org/2000/svg" xmlns:xlink="http://www.w3.org/1999/xlink">
    <!-- Generator: Sketch 40.1 (33804) - http://www.bohemiancoding.com/sketch -->
    <title>navi_07</title>
    <desc>Created with Sketch.</desc>
    <defs></defs>
    <g id="Page-1" stroke="none" stroke-width="1" fill="none" fill-rule="evenodd">
        <g id="navi_07" fill="#1F2757">
            <path d="M24,13.6 L24,10.4 C22.3,9.8 21.3,9.6 20.8,8.4 L20.8,8.4 C20.3,7.1 20.9,6.3 21.6,4.7 L19.3,2.4 C17.7,3.1 16.9,3.8 15.6,3.2 L15.6,3.2 C14.3,2.7 14.2,1.6 13.6,0 L10.4,0 C9.8,1.6 9.7,2.7 8.4,3.2 L8.4,3.2 C7.1,3.7 6.2,3.1 4.7,2.4 L2.4,4.7 C3.1,6.3 3.8,7.1 3.2,8.4 C2.7,9.7 1.6,9.8 0,10.4 L0,13.6 C1.6,14.2 2.7,14.3 3.2,15.6 C3.7,16.9 3.1,17.8 2.4,19.3 L4.7,21.6 C6.3,20.9 7.1,20.2 8.4,20.8 L8.4,20.8 C9.7,21.3 9.8,22.4 10.4,24 L13.6,24 C14.2,22.4 14.4,21.3 15.6,20.8 L15.6,20.8 C16.9,20.3 17.7,20.9 19.3,21.7 L21.6,19.4 C20.9,17.8 20.2,17 20.8,15.7 C21.3,14.4 22.4,14.2 24,13.6 L24,13.6 L24,13.6 Z M12,16 C9.8,16 8,14.2 8,12 C8,9.8 9.8,8 12,8 C14.2,8 16,9.8 16,12 C16,14.2 14.2,16 12,16 L12,16 L12,16 Z" id="Shape"></path>
        </g>
    </g>
</svg>
