<?xml version="1.0" encoding="UTF-8" standalone="no"?>
<svg width="24px" height="24px" viewBox="0 0 24 24" version="1.1" xmlns="http://www.w3.org/2000/svg" xmlns:xlink="http://www.w3.org/1999/xlink">
    <!-- Generator: Sketch 40.1 (33804) - http://www.bohemiancoding.com/sketch -->
    <title>navi_04</title>
    <desc>Created with Sketch.</desc>
    <defs></defs>
    <g id="Page-1" stroke="none" stroke-width="1" fill="none" fill-rule="evenodd">
        <g id="navi_04" fill="#1F2757">
            <path d="M24,2 L24,24 L0,24 L0,2 L3,2 L3,3 C3,4.103 3.897,5 5,5 C6.103,5 7,4.103 7,3 L7,2 L17,2 L17,3 C17,4.103 17.897,5 19,5 C20.103,5 21,4.103 21,3 L21,2 L24,2 L24,2 L24,2 Z M22,8 L2,8 L2,22 L22,22 L22,8 L22,8 L22,8 Z M20,1 C20,0.448 19.553,0 19,0 C18.447,0 18,0.448 18,1 L18,3 C18,3.552 18.447,4 19,4 C19.553,4 20,3.552 20,3 L20,1 L20,1 L20,1 Z M6,3 C6,3.552 5.553,4 5,4 C4.447,4 4,3.552 4,3 L4,1 C4,0.448 4.447,0 5,0 C5.553,0 6,0.448 6,1 L6,3 L6,3 L6,3 Z M12.687,16.482 C12.687,15.68 12.269,15.053 11.578,14.787 C12.106,14.523 12.414,13.98 12.414,13.284 C12.414,11.938 11.102,11.135 9.833,11.135 C8.356,11.135 7.242,12.06 7.174,13.898 L8.819,13.898 C8.805,13.137 9.09,12.583 9.844,12.583 C10.293,12.583 10.777,12.855 10.777,13.452 C10.777,14.206 9.961,14.314 9.21,14.249 L9.21,15.529 C10.277,15.529 10.914,15.596 10.914,16.514 C10.914,17.238 10.366,17.562 9.823,17.562 C9.001,17.562 8.664,16.948 8.635,16.11 L7.001,16.11 C6.969,18.002 8.115,19 9.843,19 C11.386,19 12.687,18.057 12.687,16.482 L12.687,16.482 L12.687,16.482 Z M17,19 L17,11.282 L15.608,11.282 C15.435,12.436 14.613,12.773 13.437,12.741 L13.437,14.087 L15.289,14.087 L15.289,19 L17,19 L17,19 L17,19 Z" id="Shape-Copy-3"></path>
        </g>
    </g>
</svg>
